PathFileType	4	(X/Y/Z)	C:\Users\Basilio\Documents\Thesis Gigler\squatting_fais\c3dfiles\058\SJ_pre2\markers_experimental.trc
DataRate	CameraRate	NumFrames	NumMarkers	Units	OrigDataRate	OrigDataStartFrame	OrigNumFrames
200.000000	200.000000	4	61	mm	200.000000	795	1272
Frame#	Time	FHD			LBHD			RBHD			C7			T10			CLAV			LSHO			LUUPA			LMUPA			LDUPA			LLEP			LMEP			LRAD			LUL			LRFIN			RSHO			RUPA1			RMUPA			RDUPA			RLEP			RMEP			RRAD			RUL			RUFIN			LASI			RASI			USACR			LSACR			RSACR			LTHI1			LTHI2			LTHI3			LTHI4			LLFC			LMFC			LTIB1			LTIB2			LTIB3			LTIB4			LLMAL			LMMAL			LHEE			LMT1			LMT2			LMT5			RTHI			RTHI2			RTHI3			RTHI4			RLFC			RMFC			RTIB1			RTIB2			RTIB3			RTIB4			RLMAL			RMMAL			RHEE			RMT1			RMT2			RMT5			
		X1	Y1	Z1	X2	Y2	Z2	X3	Y3	Z3	X4	Y4	Z4	X5	Y5	Z5	X6	Y6	Z6	X7	Y7	Z7	X8	Y8	Z8	X9	Y9	Z9	X10	Y10	Z10	X11	Y11	Z11	X12	Y12	Z12	X13	Y13	Z13	X14	Y14	Z14	X15	Y15	Z15	X16	Y16	Z16	X17	Y17	Z17	X18	Y18	Z18	X19	Y19	Z19	X20	Y20	Z20	X21	Y21	Z21	X22	Y22	Z22	X23	Y23	Z23	X24	Y24	Z24	X25	Y25	Z25	X26	Y26	Z26	X27	Y27	Z27	X28	Y28	Z28	X29	Y29	Z29	X30	Y30	Z30	X31	Y31	Z31	X32	Y32	Z32	X33	Y33	Z33	X34	Y34	Z34	X35	Y35	Z35	X36	Y36	Z36	X37	Y37	Z37	X38	Y38	Z38	X39	Y39	Z39	X40	Y40	Z40	X41	Y41	Z41	X42	Y42	Z42	X43	Y43	Z43	X44	Y44	Z44	X45	Y45	Z45	X46	Y46	Z46	X47	Y47	Z47	X48	Y48	Z48	X49	Y49	Z49	X50	Y50	Z50	X51	Y51	Z51	X52	Y52	Z52	X53	Y53	Z53	X54	Y54	Z54	X55	Y55	Z55	X56	Y56	Z56	X57	Y57	Z57	X58	Y58	Z58	X59	Y59	Z59	X60	Y60	Z60	X61	Y61	Z61	

796	3.975	21.93712425231934	1982.658081054688	-794.697937011719	-142.576400756836	1988.445434570313	-867.5090942382815	33.32905960083009	1998.150512695313	-937.2781372070315	-217.288314819336	1868.639404296875	-915.3762207031252	-278.1629638671876	1549.103515625	-887.3726806640627	-66.27322387695314	1795.22314453125	-873.3870849609377	-28.91047096252442	1857.425659179688	-1027.663452148438	-131.0079498291016	1746.885986328125	-1224.59375	-98.58383941650393	1706.479858398438	-1227.624267578125	-145.8438110351563	1688.355590820313	-1262.261352539063	-169.9347381591797	1614.61279296875	-1293.442504882813	-238.7504119873047	1624.698852539063	-1262.98193359375	-230.6509857177735	1441.47119140625	-1080.384643554688	-201.0565490722657	1380.643798828125	-1125.802612304688	-162.862777709961	1443.943359375	-1052.9765625	-129.9471435546875	1886.5224609375	-728.8283691406251	-270.1949157714844	1768.800537109375	-573.7000122070314	-238.7540893554688	1729.451538085938	-569.8808593750001	-284.3791198730469	1709.422485351563	-536.7286987304689	-314.6914367675782	1655.031982421875	-507.8071594238282	-375.1660156250001	1630.88134765625	-569.6470336914064	-236.5127563476563	1445.522583007813	-656.1812744140626	-208.3759460449219	1408.830322265625	-589.4517822265626	-161.16796875	1428.306030273438	-678.5108032226564	-113.3823547363282	1320.136474609375	-977.7315673828127	-124.4308624267578	1331.4912109375	-741.3681640625001	-295.8185729980469	1427.892822265625	-864.3354492187502	-303.7471008300782	1395.18212890625	-890.9118652343752	-305.6137695312501	1397.704833984375	-834.0157470703127	-264.5169982910157	1054.404663085938	-1075.040649414063	-251.8301239013672	972.1047363281252	-1092.317993164063	-203.3204345703126	965.5166625976565	-1096.804443359375	-284.5126647949219	923.6518554687502	-1073.901977539063	-296.3284912109376	823.027038574219	-1076.45458984375	-210.9942169189454	793.8697509765627	-996.675720214844	-248.9709777832032	686.7874145507814	-1103.26025390625	-328.2017517089844	656.4271850585939	-1115.611328125	-284.4835205078126	647.3275756835939	-1127.156372070313	-273.8850402832032	562.8599243164064	-1127.009643554688	-354.1489257812501	369.1575622558594	-1120.32568359375	-275.0431823730469	358.6437377929688	-1077.209106445313	-369.2780761718751	339.0124206542969	-1045.444580078125	-215.2633972167969	269.6090087890626	-1189.483520507813	-240.7575988769532	282.5081176757813	-1226.934814453125	-312.3506774902344	283.1638488769532	-1230.386840820313	-300.6778564453126	1145.48193359375	-678.1811523437501	-276.9418945312501	1087.855346679688	-654.0390014648439	-245.3694305419922	1084.311401367188	-646.2476196289064	-308.4439392089844	1010.734313964844	-672.6868286132814	-322.6889953613282	827.4346923828127	-672.0815429687501	-221.3100585937501	791.161071777344	-756.4358520507814	-263.9943847656251	604.6806030273439	-682.7142333984376	-343.2262878417969	544.7764282226564	-645.0407104492189	-297.5961914062501	529.9668579101564	-645.6557006835939	-291.3532409667969	479.4648437500001	-670.9913940429689	-380.9993591308594	376.1753234863282	-666.2013549804689	-301.4927062988282	383.3006591796876	-717.1594848632814	-403.707733154297	383.3541259765626	-750.7244262695314	-251.881332397461	246.8362121582032	-680.3659667968751	-274.8473815917969	237.7815551757813	-634.0776367187501	-349.4920959472657	225.8825225830079	-628.2210693359376	
797	3.98	20.22148704528809	1988.754638671875	-794.2043457031252	-143.2531890869141	1995.924072265625	-867.7304687500002	32.55743026733399	2004.198852539063	-936.737731933594	-218.2614440917969	1875.517944335938	-915.831237792969	-278.5864868164063	1554.739013671875	-886.932067871094	-67.58555603027345	1801.3544921875	-872.9411621093752	-29.9665870666504	1863.06494140625	-1027.703247070313	-132.2918701171875	1752.277099609375	-1225.733764648438	-99.50381469726565	1712.18310546875	-1228.57470703125	-146.8188629150391	1693.529541015625	-1262.985717773438	-170.4956817626953	1619.50537109375	-1293.875122070313	-239.3099517822266	1629.531616210938	-1263.35302734375	-232.1065368652344	1447.895629882813	-1079.926513671875	-203.3163146972657	1386.981201171875	-1125.257568359375	-163.7903747558594	1448.959838867188	-1053.639526367188	-131.995834350586	1893.488159179688	-728.2811889648439	-272.8386840820313	1773.966674804688	-573.0126953125001	-240.6475524902344	1735.34326171875	-568.5015869140626	-285.8608703613282	1714.301513671875	-536.0657348632814	-314.9059753417969	1659.568359375	-506.9599609375001	-375.0616760253907	1635.060791015625	-568.3856201171876	-235.646713256836	1451.619506835938	-655.8976440429689	-207.1739044189454	1415.128662109375	-588.8716430664064	-160.5301055908203	1434.213623046875	-678.5219726562501	-113.3625717163086	1325.7861328125	-977.900085449219	-123.8221664428711	1337.426147460938	-740.7583007812501	-296.0554504394532	1433.610473632813	-863.5654907226565	-304.0691223144532	1400.49169921875	-889.892028808594	-305.5059814453126	1403.184692382813	-832.986022949219	-264.5444946289063	1060.94921875	-1074.457153320313	-251.3896636962891	979.1396484375002	-1091.982421875	-202.7669219970704	972.4558105468752	-1097.187744140625	-283.6432189941407	929.8816528320315	-1073.6787109375	-293.5215759277344	828.5178222656252	-1077.222900390625	-209.6274414062501	799.3660278320315	-996.703308105469	-246.8176727294922	691.6442871093751	-1101.715087890625	-325.5483093261719	662.4628295898439	-1116.901123046875	-282.6217651367188	652.3703613281251	-1126.240966796875	-273.2801513671876	567.9218750000001	-1124.958251953125	-356.3593444824219	375.5430297851563	-1117.820434570313	-277.3597412109376	365.3524475097657	-1073.685913085938	-372.2579650878907	346.1686096191407	-1042.41845703125	-218.740463256836	275.0523376464844	-1186.40185546875	-243.8533477783204	288.1909790039063	-1223.766967773438	-314.8948974609376	289.2859802246094	-1227.376831054688	-298.6539306640626	1152.291748046875	-677.1066894531251	-275.0834045410157	1094.295654296875	-652.0878295898439	-242.8977508544922	1090.494506835938	-645.7069702148439	-306.7970275878907	1017.363098144531	-670.9290771484376	-319.2144470214844	833.3967895507815	-669.9380493164064	-219.9694824218751	797.2860107421877	-757.3522949218751	-264.2677612304688	610.6863403320314	-685.5250854492189	-342.7473754882813	551.0151367187501	-645.3196411132814	-297.1613159179688	536.0015869140626	-647.9688720703126	-292.5277404785157	485.5794372558595	-674.2661743164064	-383.3816223144532	383.0900573730469	-666.9052734375001	-307.8165283203126	389.5894470214845	-720.9258422851564	-409.4293823242189	391.5674438476564	-750.3235473632814	-256.0638732910157	252.9664916992188	-688.1443481445314	-277.1843872070313	243.6749877929688	-640.8077392578126	-351.6951293945313	232.0093078613282	-632.5009155273439	
798	3.985	19.06557273864746	1994.542114257813	-793.824645996094	-145.0525360107422	2002.959716796875	-867.3420410156252	31.430326461792	2009.868896484375	-936.485290527344	-219.1836853027344	1882.121459960938	-916.2141723632815	-279.0544128417969	1559.927368164063	-886.3750610351565	-68.53204345703126	1807.755493164063	-872.4712524414065	-31.39737701416016	1868.4833984375	-1027.658447265625	-133.0584106445313	1757.8154296875	-1226.43408203125	-100.2010498046875	1717.906860351563	-1228.970947265625	-147.4096069335938	1698.883056640625	-1263.3388671875	-171.2020416259766	1624.364990234375	-1294.16943359375	-239.7820892333985	1635.2099609375	-1263.937622070313	-233.3849182128907	1454.144653320313	-1079.351440429688	-205.5719757080079	1392.864379882813	-1124.789916992188	-165.1117401123047	1454.586547851563	-1053.685302734375	-134.524398803711	1900.05126953125	-727.8936767578126	-275.3843078613282	1780.006591796875	-573.2630004882814	-242.1839141845704	1742.389282226563	-567.6938476562501	-287.5215454101563	1720.2548828125	-535.5156250000001	-315.3025207519532	1664.304443359375	-506.3093566894532	-375.1820068359376	1639.417358398438	-567.4335937500001	-234.5521697998047	1457.92578125	-655.5335693359376	-206.0623779296876	1421.43310546875	-588.8225097656251	-159.8295135498047	1439.914672851563	-678.5769653320314	-113.3278121948242	1331.523193359375	-977.9677734375002	-123.3010025024414	1343.085571289063	-740.2112426757814	-295.8782348632813	1438.923706054688	-862.9192504882815	-303.9491577148438	1405.76318359375	-889.0562133789065	-305.4304199218751	1408.610107421875	-832.042419433594	-263.0705871582032	1067.732055664063	-1073.988403320313	-249.8167114257813	985.4709472656252	-1091.875610351563	-201.7174530029297	979.3176269531252	-1097.2021484375	-281.8580932617188	936.2871093750002	-1073.950561523438	-290.9620971679688	834.0140380859377	-1077.308471679688	-208.6656341552735	804.6682739257815	-995.6760864257815	-244.0761718750001	696.1263427734376	-1099.693481445313	-323.5708923339844	668.4595336914064	-1117.251342773438	-280.7926635742188	657.3856811523439	-1125.224487304688	-272.6250000000001	572.8845825195314	-1122.817993164063	-358.8353576660157	381.9367065429688	-1115.553100585938	-279.9750976562501	371.6160888671876	-1070.828002929688	-374.8457336425782	353.4809570312501	-1039.817260742188	-221.4157714843751	280.3449401855469	-1183.066528320313	-246.5970001220704	293.3703308105469	-1220.56982421875	-318.5363769531251	295.0304260253907	-1224.220703125	-296.4988403320313	1158.396118164063	-675.8217773437501	-272.4025268554688	1100.407104492188	-651.6301269531251	-240.6218261718751	1096.2353515625	-645.2219238281251	-304.8439636230469	1023.702087402344	-669.0961303710939	-316.1594543457032	839.5479125976565	-668.3856811523439	-219.1772460937501	803.9460449218752	-758.8529052734376	-265.1195373535157	616.7390747070314	-688.4716186523439	-341.5436706542969	557.3059082031251	-645.5989990234376	-296.8901977539063	541.6375732421876	-650.2031860351564	-293.5447387695313	491.8142395019532	-677.3493041992189	-385.200653076172	389.8395385742189	-667.2606811523439	-311.9509582519532	396.2652893066407	-724.2268676757814	-414.9637451171876	399.198699951172	-749.1929321289064	-260.4164123535157	259.2336425781251	-695.3967895507814	-279.2651672363282	248.9553222656251	-648.6339111328126	-353.0083618164063	237.8630523681641	-635.8246459960939	
799	3.99	18.11413955688477	2000.378784179688	-793.1418457031252	-145.24560546875	2009.81591796875	-867.5438232421877	31.2536735534668	2015.320556640625	-935.780944824219	-220.2769775390626	1888.32275390625	-916.534362792969	-279.5976562500001	1564.912963867188	-885.830261230469	-69.92445373535158	1813.519653320313	-872.1480712890627	-32.89247512817384	1873.58984375	-1027.450805664063	-133.1173858642578	1763.59619140625	-1226.73046875	-100.5331268310547	1723.358032226563	-1228.865966796875	-147.3932342529297	1704.402587890625	-1263.466552734375	-171.9443511962891	1629.079223632813	-1294.277954101563	-240.5049285888672	1640.364501953125	-1264.318359375	-234.6811218261719	1459.909057617188	-1079.036987304688	-207.7303771972657	1398.58984375	-1124.409912109375	-166.4447174072266	1459.898803710938	-1053.727172851563	-136.6678466796875	1906.1494140625	-727.7863159179689	-277.8911437988282	1786.414672851563	-574.0034790039064	-243.6842651367188	1749.842407226563	-567.3560180664064	-289.0025634765626	1727.207153320313	-535.7705078125001	-315.8277282714844	1669.565063476563	-505.861541748047	-375.3319091796876	1643.9775390625	-566.8468627929689	-234.1654663085938	1463.547607421875	-655.3852539062501	-205.6131134033204	1427.111572265625	-588.2892456054689	-159.2859802246094	1445.496337890625	-678.5830688476564	-113.3174057006836	1336.973510742188	-978.087585449219	-122.6567840576172	1348.628784179688	-739.6763305664064	-296.0180358886719	1443.973876953125	-861.9499511718752	-304.1179809570313	1410.97265625	-888.2681884765627	-305.2435913085938	1413.586059570313	-831.4038696289065	-263.3479003906251	1073.14208984375	-1073.218139648438	-248.1609039306641	991.5035400390627	-1091.751586914063	-200.3642730712891	985.410095214844	-1096.836791992188	-280.3035888671876	941.8868408203127	-1073.938842773438	-288.6519775390626	839.450134277344	-1077.537841796875	-207.8479309082032	809.797302246094	-994.315612792969	-242.814682006836	700.8565673828126	-1097.51123046875	-321.4187316894532	674.4108886718751	-1118.162841796875	-278.6127624511719	662.5823364257814	-1123.971923828125	-271.8352050781251	577.8682861328126	-1120.617553710938	-360.6793212890626	388.1871337890626	-1113.872314453125	-282.3956604003907	377.8725280761719	-1068.284057617188	-377.4824523925782	360.6850585937501	-1038.001831054688	-222.9821319580079	285.0148010253907	-1179.06982421875	-248.6420288085938	298.1614379882813	-1216.962768554688	-319.9169006347657	299.6214599609376	-1221.5322265625	-294.1788024902344	1164.165771484375	-674.2449951171876	-269.4362487792969	1106.150756835938	-650.9987792968751	-237.5030212402344	1101.759521484375	-645.5463867187501	-302.6012573242188	1029.59814453125	-667.6350097656251	-313.2498474121094	845.759704589844	-667.1749877929689	-219.6513366699219	810.0095214843752	-761.4448242187501	-265.5595397949219	622.3870849609376	-691.4086303710939	-340.7285461425782	563.3225097656251	-645.7521362304689	-295.7997741699219	547.2470092773439	-652.3763427734376	-294.4672546386719	497.3868103027345	-680.0476074218751	-386.7714233398439	396.189666748047	-667.0827636718751	-315.7709960937501	402.6682434082032	-727.0031127929689	-419.6608886718751	406.7659301757814	-747.7105102539064	-265.1545715332032	265.0814819335938	-702.6499633789064	-280.9210815429688	254.6791229248047	-654.2028198242189	-354.4496459960938	244.1427459716797	-638.2543334960939	
